<mxfile host="65bd71144e">
    <diagram id="HIP3nbAZw_EuaXWnEj3U" name="Page-1">
        <mxGraphModel dx="708" dy="329" grid="1" gridSize="10" guides="1" tooltips="1" connect="1" arrows="1" fold="1" page="1" pageScale="1" pageWidth="850" pageHeight="1100" math="0" shadow="0">
            <root>
                <mxCell id="0"/>
                <mxCell id="1" parent="0"/>
                <mxCell id="15" value="http://ics2o.mths.ca" style="swimlane;whiteSpace=wrap;html=1;" vertex="1" parent="1">
                    <mxGeometry x="20" y="20" width="765" height="480" as="geometry"/>
                </mxCell>
                <mxCell id="16" value="&lt;span style=&quot;font-size: 16px;&quot;&gt;Select a starbucks drinks&lt;/span&gt;" style="rounded=0;whiteSpace=wrap;html=1;" vertex="1" parent="15">
                    <mxGeometry y="20" width="765" height="50" as="geometry"/>
                </mxCell>
                <mxCell id="17" value="&lt;span style=&quot;font-size: 15px;&quot;&gt;What starbucks drink do you want?&lt;/span&gt;" style="text;html=1;strokeColor=none;fillColor=none;align=center;verticalAlign=middle;whiteSpace=wrap;rounded=0;" vertex="1" parent="15">
                    <mxGeometry x="30" y="100" width="240" height="30" as="geometry"/>
                </mxCell>
                <mxCell id="18" value="select A drinks" style="text;html=1;strokeColor=none;fillColor=none;align=center;verticalAlign=middle;whiteSpace=wrap;rounded=0;" vertex="1" parent="15">
                    <mxGeometry x="30" y="160" width="95" height="30" as="geometry"/>
                </mxCell>
                <mxCell id="19" value="&lt;span style=&quot;font-size: 16px;&quot;&gt;Price&lt;br&gt;&lt;/span&gt;" style="rounded=1;whiteSpace=wrap;html=1;" vertex="1" parent="15">
                    <mxGeometry x="40" y="300" width="120" height="40" as="geometry"/>
                </mxCell>
                <mxCell id="20" value="" style="rounded=1;whiteSpace=wrap;html=1;fontSize=16;" vertex="1" parent="15">
                    <mxGeometry x="100" y="225" width="120" height="30" as="geometry"/>
                </mxCell>
                <mxCell id="21" value="Drink" style="text;html=1;strokeColor=none;fillColor=none;align=center;verticalAlign=middle;whiteSpace=wrap;rounded=0;fontSize=16;" vertex="1" parent="15">
                    <mxGeometry x="20" y="225" width="60" height="30" as="geometry"/>
                </mxCell>
                <mxCell id="22" value="" style="triangle;whiteSpace=wrap;html=1;rotation=90;" vertex="1" parent="15">
                    <mxGeometry x="255" y="225" width="30" height="40" as="geometry"/>
                </mxCell>
                <mxCell id="23" value="&lt;span style=&quot;font-size: 16px;&quot;&gt;the price of the drink is $ 10.74&lt;br&gt;&lt;/span&gt;" style="rounded=1;whiteSpace=wrap;html=1;" vertex="1" parent="15">
                    <mxGeometry x="40" y="400" width="230" height="40" as="geometry"/>
                </mxCell>
                <mxCell id="24" value="" style="shape=image;verticalLabelPosition=bottom;labelBackgroundColor=default;verticalAlign=top;aspect=fixed;imageAspect=0;image=data:image/png,/9j/4AAQSkZJRgABAQAAAQABAAD/2wCEAAkGBxASEhUSEhAVEBUXEhIQGBUQEhAQFRIXFRIWFhUVFhYYHSggGBolGxUVITIhJSkrLi4uFx8zODMtNygtLisBCgoKDg0OGhAQFysdHSUtLS0tLS0uLSsrLSstMS4tKy0tLS0tLS0tLS0tKystKys3LS0tLS0tLSstLS0tLS4rK//AABEIAOEA4QMBIgACEQEDEQH/xAAbAAEAAwEBAQEAAAAAAAAAAAAAAwQFBgIBB//EADwQAAIBAgMECQIEAwgDAAAAAAABAgMRBCExBRJBUQYTIjJhcYGxwZGhI2Jy0YKS8BUzQ1JTY7LxBxRC/8QAGgEBAAMBAQEAAAAAAAAAAAAAAAECAwQFBv/EACkRAQACAgAFAwQCAwAAAAAAAAABAgMRBAUSITFRYYEUIiNxEzMy0eH/2gAMAwEAAhEDEQA/APzgAEuUAAAAAAAAAAAAAAAAAAAAAAAAAAAAAAAAAAAAAAAAAAAAAAAAAhm7LtPlHtP6ItUtm15ZRoVHf/bmvdAiJlVBc/srEXt1M15xsX4dE8a473U8L2cop/RsLdFvRiA0J7DxS1oT/lb9j1T2BipaUZerjH3YOi3ozQaH9iYne3eplflY+PY2I/0pfQI6beigC49l11/hv7HmWzq6zdKf8rCNSqgklh6i1pzX8Ev2InJJ2bSfJuz+gH0AAAAAAAAAAAAAAAAAAAABu9FOjssZU3d7ditbavTJfVHeUuheHpWUaUajt3qt53afJ8NTL/8AFkoOFSLdmqikmtV2F+x220sNvpXcnZ3TXNLV6XJh2YaxqJ0zOqp04pShTi1dpR3I8rZW4czMhti8pU1OlTm7y3KWba/NJ6v0JMTsudNSn1kJVJayrxnBOMb7sbRvZLPicts7YOJ6x1L0arbbvRrRyu9FCST1Lbd9K09XWUKUpO7km3xvJNeT0PdbCTg96FS3NVLt+alfMr4KhWg1v0ZpaXSUvtFs095TVrPj3oyVnzzIRaI2o161ealCnvNWtZT73jfgipDD4ndtOm1pZprKz58ToVgYxSe5eWt7ttO/DkenTms2m/NP73JIyRHaIZWH2TVk03KO7bSUlvwdrNJ6NeOWpRqxxmHk4zpyrUm95SpwdSMc9JwTbeiaaNnaUazjeMU8rWuk7GBhdj1JzvN1KWklbrLX45LIET1f5a06rAzp1oKV+Td9+m7p3tZ52vfIkWFhqr23t7Lday/+bf5fAgw0Zw7L7Vna6u01zua1KMbZyzeVuSvqHPasMV7FpTa6ynGTV3vx/BvndKUY8LWXoYW0MDglKUb1MnnHrW4p20SaZ1+LhOzUN29nZt8TkKnRHFSbbq05Xk32nPJeCS+SClKT5QUOjOBrvds6UuGStLylDdz80znelPQ6eEj1kZb8LvWzasm9VqrLkmj9GwPR+ELOUs0o2S7KTS15sodOsVFYWvFO8nSlG74bytZcuI0zyYqzvT8gABVwgAAAAAAAAAAAAAAAOq6BbQjSnNSdlLd+q5n6js/FqSykn5O9z8U2PBtu3Cz9zYqYqvTSnCcouLvk2rXy08y8RuHt8Lw0ZMFZie79cxVKnOLjNJq2dzOjsmC7lrX0aUl424o4aPSibptOTk7aPLhmm+JPgOmc4qKahFacb28BqWn0l47bdNtvafUJQjFXeav93crUcTWlZ7l3a7WlvJ2zKUNv0Kk4qdNtWdpXy9b+JffSCjoovwvZeRPTJOC9e3S0sPjKl1FyyevduuW7bTjryNWlXhupvjbjfM/PMT0zpz34OEqLWkqitfXPnYp4PpdWheO/GqrPdae6720dyNM/p7Wjw/U5VoLj7EMsVHn7H5ZX6QTrR7dR0Wpby3Hw0Ty110JMHjq0XdSqVLZu7dvuyNFeG3Hl+kzxC/q2p4WIXE5CHSBWV43bXCSZ4r9IZxu9xcrt89CelH01t607J4tJ2X0I8TtOEI3k7cMs83pkfmEekFeU96dRLdfB7sc9E2rts94jbFWpJSnZ3jayvu5vLjqW0v8ATanvLra236lSN6UWu1a0lk7PPT3M/pzUisNLTelKN0ne3aWvsZqx1opRvvKCi8tHxd+Zl7alLqe0223HXzEx2Wz4YritMejnAAZPAAAAAAAAAAAAAAAAAXNmVGpO3Je5s4mScLX1VjCwErS9PlGxiIZX00ZrTw+k5XHVg+ZRYLCqStq1x5luOAfFfbQ9YKm1mnZZXZexavFOD3sr3WRLumumVUpZLhbiQObg229c7Zvx+S3NPP5Kkk7u/wB8yYlete/eFfE1nUW6875+T4EEqTUV2bWdneSs/I0JYeytFcPqIUHxX00La21/jie7LdVvJ9lN88s/B+5f2ddtxlUcYJrVt3tpxJq2FSV7Z634mX1lne107OzyKzDnvi6ImXRYWtSpS6263Y5RWvm8tSjtraDq2S7MVnbTed8mZLrL/KstE22ln4HzVtvWyskteCS8SJlhkya1Kw3J3V8uCb08jZ2Zs/egpO8bXdtL34vmc/GO9lez08jsdnSjGhBXfdSzyfqIlGPVkUYWyRn9Ip/hpfmXyada2qfgYnSGeUV4v2FvDPju2GzFABi+ZAAAAAAAAAAAAAAAAT4Hvr1Oqxqj1cba2OSod5evszX62T48EaUfRcn7459pWqMrqxcw0+CyztqszMoplqhh3wf9czSXtzXa1Vot+5RlTs7vmXlKa8SKpiPy5kIiLR7p5RhuppXd16HqVKKuzNq4/lG3qVKmMlJWfKxaIletbSl2jilojFrSeXyWasL6Hj/18s8yZjcaWyYrWjpiFaUb58PDI9R8ODX/AGTSpOKSjnnxJ40OSXPTXwKTSXFl4ObdojXr/wARUqTcklq3dtcM82dAu7uvTs+Ghl4Wi01l4mjKRaK6aYuH/jr38vW/nYydtvu+rNSmjJ273o+UvdfsZ38PN5nOsE/DNABk+ZAAAAAAAAAAAAAAAAe6HeXmjXpr2MelqvNe5tU0aUfQcln7LR7rWHpo0ItLQzqMiWdZR1dvAu93aerVPMUmjJxOKbd1pw4ohp7Ra1VmNs5zREtWrhVZmfOlm7cCxHF7yIpLO+n1NKurFfbxCg2WqGEjbMKHh6nyo3FEtZ7+JVa265WWmh0ezMNDczRztOnLWxrYTGWQsplidahPiqSTyjkUqsS9Ktcr1IlNuf8AaOijE20/xF+lfds36aOd2u/xH5JfPyZX8PE5tP4vlTABm+dAAAAAAAAAAAAAAAAfY6rzXubtNGDc6Kgs0Xo9zks97x+k1OkyHF4Nye9xtY1KMCy8J4F9venVo1LjKtGcXlztyS9CvJWdndvxWR2OL2TfPTyMersyTlbh8Eacv08xO6yz8KmW3UehbeDUY2RXVPO1jWr0sFNV7vtKrO+Un9jWwuDc85ZogwOE55czo4V6aikkkkrEWt6IzZNdqwoTwiatYzMbgXF34eBuvERK1eqms+JESyrkttz1NTi3nlwLEZtnrEpIghILTrS9Sgc1tb+9l5pfZHT4dnK7RlerP9TM7vA5vP2RHurgAzeAAAAAAAAAAAAAAAAA+M6LDSyj6exzxtYGfZj5R/4l6PZ5LP5LR7OiwTWRrZM53C17GpLFqyLTD3ZpO1uSu7LifcTgeP0yItnTvNZ8TSx1RJESraZraIhy20klkihSWfqW8ZK7b8blSU7GkPQpH2txunurd5FOczPo4yyaZ7da41pSKTWVqMz7XmkrlWM8rlLGYlshS/Z7r1yChik3ZcDPrV2zzRk9Vrrpcbct8+vDqKGhyuJd5yf5pe502z53hfwOWk82/Fv7spd43OLb6fl8ABm8QAAAAAAAAAAAAAAAANbA9xeS/YyTX2bG8F6+7L08vX5LP55j2/0uRlclo1HfU8uiz4kaPqYlsYLEKOZLjMepGOpMORGleiJnZXqmfWqt5E1aRUlEtV0008Nu5YoJnqjh75su0qBM2Re8ItxlXEUGzW3CKpTKbc8ztzdWi0esDHt/FtfU2KuGTPGGw6i8kNOa2CJna9h47sH5HJR0Xkjrq7tSk/yv2ZySKXeDzefvrAACjyAAAAAAAAAAAAAAAAA3Nirser9zDNvYT7L/AFP4LU8vS5VOs/xLYgiZUE+BFTZbosvL6TcwpVaaXAp1GbWJomZXphvS22dUPlJZktWBFEs2iezUoRTRYUDOw1SxqYWSk0iGNp0jaPMol+rhrZlSo7EbUidqVVEMdSSvUIqbuy0LT4SY+X4M/wBL9jlzpNqytRl6e6ObMr+Xy/Np/LEewACrywAAAAAAAAAAAAAAAA1tjVEoyvz+DJLmDl2J+cfZlq+Xdy2dcRX5dBTrplyhVRzdGbXEu0MUXmH1Pl00HeJmYpWPtDG5alXF4m5C1KzEq1VkKPspESmWh1VhYgX8JIzIyJ6OIsFbV26OeIyzMfGYlcCrWx98kyqqtyIhnTFp7nMmo6kMYXZPTjmTMmSeyPbMvwvVL7nPm5tz+7X6l8mGZS+S5nO8/wAQAAh54AAAAAAAAAAAAAAAAXdmRvvx5xXuykXdkvtv9L+zRMeXVwU6z0/bzUustCajIs18Om76P3I4UrGm31daTE+yaEz5KR8sfGQ66w8ykQJsmkVy0NapesPkqhHFEnAlLzdsmimRwRYiiJlFpSUyxRIIk9Iq5cint19iP6vhmKbG3tIeb9jHKS+R5hO88/AACHEAAAAAAAAAAAAAAAAFnZr7a8mvn4KxPgX24+vsw24adZaz7w2meLHs8l9vs6y82PDPbPMg2hHIrosSIGi0NaiQTPqZ9sSs9QJY/Yhpk6IlSySBZplaC5lmkiHNlZ23n3P4n7GSam3u9Dyl7oyykvkOOneewACHIAAAAAAAAAAAAAAAAE2D78fP9wA0w/2V/cNqJ8YBaH2lHk8M+glvDxIgXEAtDSH2J6fyAEvsNSVaoASWe/3LdIAhyZfDK293o/pfujMAKS+P43++wACHMAAAAAAAA//Z;" vertex="1" parent="15">
                    <mxGeometry x="430" y="115" width="285" height="285" as="geometry"/>
                </mxCell>
            </root>
        </mxGraphModel>
    </diagram>
</mxfile>